Coordinates
version=1
nRows=16
nColumns=40
inDegrees=yes

Units are S.I. units (second, meters, Newtons, ...)
If the header above contains a line with 'inDegrees', this indicates whether rotational values are in degrees (yes) or radians (no).

endheader
time	pelvis_tilt	pelvis_list	pelvis_rotation	pelvis_tx	pelvis_ty	pelvis_tz	hip_flexion_r	hip_adduction_r	hip_rotation_r	knee_angle_r	knee_angle_r_beta	ankle_angle_r	subtalar_angle_r	mtp_angle_r	hip_flexion_l	hip_adduction_l	hip_rotation_l	knee_angle_l	knee_angle_l_beta	ankle_angle_l	subtalar_angle_l	mtp_angle_l	lumbar_extension	lumbar_bending	lumbar_rotation	arm_flex_r	arm_add_r	arm_rot_r	elbow_flex_r	pro_sup_r	wrist_flex_r	wrist_dev_r	arm_flex_l	arm_add_l	arm_rot_l	elbow_flex_l	pro_sup_l	wrist_flex_l	wrist_dev_l
      2.65500000	      4.91230837	     -5.32414774	      1.85696365	      0.15667908	      0.44402177	     -1.23043420	     85.62176291	    -48.36606179	     20.79105836	    121.79943370	      2.12580115	     32.00694775	     23.33131384	      0.00000000	     98.92048912	    -43.03725218	     34.11119425	    125.10188406	      2.18343978	     34.14232884	     23.50259863	      0.00000000	    -44.90687189	      6.99166443	     -4.50847967	     44.99992433	    -14.99999999	     44.99992433	     75.00017585	     45.00000026	      0.00000000	      0.00000000	     44.99992433	    -14.99999999	     44.99992433	     75.00017585	     45.00000026	      0.00000000	      0.00000000
      2.66000000	      4.61139864	     -5.32602970	      1.83778730	      0.15632489	      0.44524800	     -1.23035596	     85.70046174	    -48.31257422	     20.49399348	    121.59736021	      2.12227430	     31.91637615	     23.10880857	      0.00000000	     99.00340829	    -43.00990968	     33.83579980	    124.87967540	      2.17956150	     34.03720832	     23.33062945	      0.00000000	    -44.60758766	      7.00591161	     -4.45508372	     44.99992433	    -14.99999999	     44.99992433	     75.00017585	     45.00000026	      0.00000000	      0.00000000	     44.99992433	    -14.99999999	     44.99992433	     75.00017585	     45.00000026	      0.00000000	      0.00000000
      2.66500000	      4.31250495	     -5.33879975	      1.82970341	      0.15594718	      0.44657796	     -1.23027936	     85.74360585	    -48.26641648	     20.15789110	    121.39073219	      2.11866796	     31.83104409	     22.85846526	      0.00000000	     99.08286691	    -42.97339473	     33.56365937	    124.64218214	      2.17541647	     33.89934163	     23.14654293	      0.00000000	    -44.28816859	      7.04180154	     -4.44298411	     44.99992433	    -14.99999999	     44.99992433	     75.00017585	     45.00000026	      0.00000000	      0.00000000	     44.99992433	    -14.99999999	     44.99992433	     75.00017585	     45.00000026	      0.00000000	      0.00000000
      2.67000000	      4.00203546	     -5.32834290	      1.81547278	      0.15557119	      0.44797316	     -1.23017873	     85.81844486	    -48.21580840	     19.84770724	    121.16907271	      2.11479927	     31.73011472	     22.61954970	      0.00000000	     99.13433523	    -42.94931824	     33.24345557	    124.39201633	      2.17105025	     33.76278509	     22.93807894	      0.00000000	    -43.94847317	      7.03556855	     -4.45542496	     44.99992433	    -14.99999999	     44.99992433	     75.00017585	     45.00000026	      0.00000000	      0.00000000	     44.99992433	    -14.99999999	     44.99992433	     75.00017585	     45.00000026	      0.00000000	      0.00000000
      2.67500000	      3.67347922	     -5.32772588	      1.79576416	      0.15518496	      0.44942992	     -1.23006540	     85.88602015	    -48.15351155	     19.50669420	    120.93910935	      2.11078565	     31.61926308	     22.35399079	      0.00000000	     99.20206172	    -42.92511412	     32.92895453	    124.12678201	      2.16642104	     33.62477491	     22.76025122	      0.00000000	    -43.60753222	      7.05758790	     -4.40873069	     44.99992433	    -14.99999999	     44.99992433	     75.00017585	     45.00000026	      0.00000000	      0.00000000	     44.99992433	    -14.99999999	     44.99992433	     75.00017585	     45.00000026	      0.00000000	      0.00000000
      2.68000000	      3.38921933	     -5.30805963	      1.77713234	      0.15476247	      0.45111806	     -1.22993246	     85.88948012	    -48.09564965	     19.16245162	    120.68256943	      2.10630819	     31.52436170	     22.13433391	      0.00000000	     99.16904263	    -42.92465349	     32.55186292	    123.84361546	      2.16147885	     33.49379627	     22.52623941	      0.00000000	    -43.32541586	      7.02269329	     -4.41490190	     44.99992433	    -14.99999999	     44.99992433	     75.00017585	     45.00000026	      0.00000000	      0.00000000	     44.99992433	    -14.99999999	     44.99992433	     75.00017585	     45.00000026	      0.00000000	      0.00000000
      2.68500000	      2.98343668	     -5.32329403	      1.75843861	      0.15438429	      0.45251922	     -1.22985174	     86.02584210	    -48.03054549	     18.79455945	    120.44049545	      2.10208320	     31.40255416	     21.82976236	      0.00000000	     99.33822650	    -42.87193932	     32.25741470	    123.57092076	      2.15671943	     33.32989960	     22.31509083	      0.00000000	    -42.83297284	      7.08565554	     -4.35507398	     44.99992433	    -14.99999999	     44.99992433	     75.00017585	     45.00000026	      0.00000000	      0.00000000	     44.99992433	    -14.99999999	     44.99992433	     75.00017585	     45.00000026	      0.00000000	      0.00000000
      2.69000000	      2.69223346	     -5.29714459	      1.72910043	      0.15395393	      0.45438874	     -1.22967202	     86.00991718	    -47.95675443	     18.42479824	    120.16336930	      2.09724643	     31.29995136	     21.53410518	      0.00000000	     99.27723924	    -42.89153350	     31.85120724	    123.25473870	      2.15120101	     33.18629616	     22.12921524	      0.00000000	    -42.53352381	      7.06905761	     -4.30580995	     44.99992433	    -14.99999999	     44.99992433	     75.00017585	     45.00000026	      0.00000000	      0.00000000	     44.99992433	    -14.99999999	     44.99992433	     75.00017585	     45.00000026	      0.00000000	      0.00000000
      2.69500000	      2.37609833	     -5.25733933	      1.71067314	      0.15353018	      0.45627046	     -1.22953476	     86.04190867	    -47.90183247	     18.07941271	    119.87417263	      2.09219900	     31.14245680	     21.29224744	      0.00000000	     99.20939009	    -42.89005396	     31.40813964	    122.93848378	      2.14568132	     33.06880678	     21.88315299	      0.00000000	    -42.18548296	      7.08494968	     -4.23257843	     44.99992433	    -14.99999999	     44.99992433	     75.00017585	     45.00000026	      0.00000000	      0.00000000	     44.99992433	    -14.99999999	     44.99992433	     75.00017585	     45.00000026	      0.00000000	      0.00000000
      2.70000000	      1.97547625	     -5.27602659	      1.70605565	      0.15314523	      0.45797243	     -1.22945116	     86.09736615	    -47.84937262	     17.65039760	    119.59334320	      2.08729760	     31.05321135	     20.99707942	      0.00000000	     99.32441460	    -42.83151888	     31.07459061	    122.62162440	      2.14015108	     32.87026004	     21.64865051	      0.00000000	    -41.70707891	      7.16375423	     -4.17688703	     44.99992434	    -14.99999999	     44.99992434	     75.00017585	     45.00000026	      0.00000000	      0.00000000	     44.99992434	    -14.99999999	     44.99992434	     75.00017585	     45.00000026	      0.00000000	      0.00000000
      2.70500000	      1.66288851	     -5.20843113	      1.64282445	      0.15271600	      0.46004853	     -1.22916817	     86.12515218	    -47.73369762	     17.32070853	    119.29845662	      2.08215086	     30.94114611	     20.65449006	      0.00000000	     99.20329684	    -42.89913602	     30.57759642	    122.26784395	      2.13397645	     32.70665818	     21.44206910	      0.00000000	    -41.35172312	      7.00418035	     -4.22889777	     44.99992434	    -14.99999999	     44.99992434	     75.00017585	     45.00000026	      0.00000000	      0.00000000	     44.99992434	    -14.99999999	     44.99992434	     75.00017585	     45.00000026	      0.00000000	      0.00000000
      2.71000000	      1.30593198	     -5.13574648	      1.59333316	      0.15231132	      0.46211515	     -1.22889232	     86.20026246	    -47.63464644	     16.99120766	    118.98473377	      2.07667536	     30.81909586	     20.31959868	      0.00000000	     99.11091920	    -42.94223666	     30.06690927	    121.90647114	      2.12766930	     32.57085678	     21.22489808	      0.00000000	    -40.96577683	      6.93843476	     -4.13711577	     44.99992434	    -14.99999999	     44.99992434	     75.00017585	     45.00000026	      0.00000000	      0.00000000	     44.99992434	    -14.99999999	     44.99992434	     75.00017585	     45.00000026	      0.00000000	      0.00000000
      2.71500000	      0.94044022	     -5.07264771	      1.56567802	      0.15190741	      0.46420309	     -1.22871820	     86.27697543	    -47.57053700	     16.65427045	    118.66300397	      2.07106012	     30.68033421	     20.07061416	      0.00000000	     99.02489935	    -42.94315971	     29.55543795	    121.54607022	      2.12137912	     32.40659485	     20.94845481	      0.00000000	    -40.50912341	      6.95160256	     -4.10750730	     44.99992434	    -14.99999999	     44.99992434	     75.00017585	     45.00000026	      0.00000000	      0.00000000	     44.99992434	    -14.99999999	     44.99992434	     75.00017585	     45.00000026	      0.00000000	      0.00000000
      2.72000000	      0.55109421	     -4.92783676	      1.47929050	      0.15152209	      0.46621843	     -1.22830602	     86.50995996	    -47.43130353	     16.48370178	    118.36474802	      2.06585457	     30.45454706	     19.80924725	      0.00000000	     98.89672489	    -43.02453791	     28.94371403	    121.17421310	      2.11488899	     32.19653767	     20.72473436	      0.00000000	    -39.96119284	      6.73973850	     -4.07939801	     44.99992434	    -14.99999999	     44.99992434	     75.00017585	     45.00000026	      0.00000000	      0.00000000	     44.99992434	    -14.99999999	     44.99992434	     75.00017585	     45.00000026	      0.00000000	      0.00000000
      2.72500000	      0.18656784	     -5.12583270	      1.55795365	      0.15116372	      0.46858600	     -1.22856878	     86.12140411	    -47.46117366	     15.60573523	    117.95939253	      2.05877978	     30.42330257	     19.46744691	      0.00000000	     99.04482509	    -42.86584457	     28.78324372	    120.79184528	      2.10821541	     32.04395578	     20.46541559	      0.00000000	    -39.57667433	      7.02998662	     -4.14077471	     44.99992434	    -14.99999999	     44.99992434	     75.00017585	     45.00000026	      0.00000000	      0.00000000	     44.99992434	    -14.99999999	     44.99992434	     75.00017585	     45.00000026	      0.00000000	      0.00000000
      2.73000000	     -0.17188437	     -5.04395895	      1.49096921	      0.15079019	      0.47095065	     -1.22822782	     86.15332639	    -47.33910347	     15.24723190	    117.61502075	      2.05276936	     30.27854247	     19.10749632	      0.00000000	     98.89430183	    -42.93366615	     28.22477782	    120.38183677	      2.10105941	     31.86779582	     20.24075099	      0.00000000	    -39.14015615	      6.91637936	     -4.11506202	     44.99992434	    -14.99999999	     44.99992434	     75.00017585	     45.00000026	      0.00000000	      0.00000000	     44.99992434	    -14.99999999	     44.99992434	     75.00017585	     45.00000026	      0.00000000	      0.00000000
